<svg width="34" height="44" fill="none" xmlns="http://www.w3.org/2000/svg"><g filter="url(#P__a)"><path d="M.793 44V.364h17.216c3.31 0 6.129.632 8.458 1.896 2.33 1.25 4.105 2.99 5.327 5.22 1.236 2.216 1.854 4.773 1.854 7.67 0 2.898-.625 5.455-1.875 7.671s-3.061 3.942-5.433 5.178c-2.358 1.235-5.214 1.853-8.566 1.853H6.801V22.46h9.482c1.775 0 3.238-.306 4.389-.916 1.165-.625 2.031-1.485 2.6-2.578.582-1.108.873-2.38.873-3.814 0-1.45-.291-2.713-.874-3.793-.568-1.094-1.434-1.939-2.6-2.536-1.164-.61-2.641-.916-4.43-.916h-6.223V44H.793Z" fill="#206A5D"/></g><defs><filter id="P__a" x=".793" y=".364" width="32.855" height="47.636" filterUnits="userSpaceOnUse" color-interpolation-filters="sRGB"><feFlood flood-opacity="0" result="BackgroundImageFix"/><feBlend in="SourceGraphic" in2="BackgroundImageFix" result="shape"/><feColorMatrix in="SourceAlpha" values="0 0 0 0 0 0 0 0 0 0 0 0 0 0 0 0 0 0 127 0" result="hardAlpha"/><feOffset dy="4"/><feGaussianBlur stdDeviation="2"/><feComposite in2="hardAlpha" operator="arithmetic" k2="-1" k3="1"/><feColorMatrix values="0 0 0 0 0 0 0 0 0 0 0 0 0 0 0 0 0 0 0.25 0"/><feBlend in2="shape" result="effect1_innerShadow_65_22"/></filter></defs></svg>